# xmcd CD database file
#
# Track frame offsets:
#	150
#	14417
#	34502
#	48627
#	65905
#	82710
#	106395
#	117270
#	137997
#	148037
#	169545
#
# Disc length: 2403 seconds
#
# Revision: 0
# Processed by: cddbd v1.5PL3 Copyright (c) Steve Scherf et al.
# Submitted via: CDex 1.50beta10
#
DISCID=9509610b
DTITLE=ダウンタウンブギウギバンド - 脱・どん底
DYEAR=1900
DGENRE=R&B
TTITLE0=山谷ブルース
TTITLE1=今日から他人
TTITLE2=青春すきま風
TTITLE3=哀しみの河
TTITLE4=知らず知らずのうちに
TTITLE5=黒の舟唄
TTITLE6=懐かしのラク・タイム
TTITLE7=裏切りの前に
TTITLE8=ダメな女の四畳半
TTITLE9=脱・どん底　傷だらけのブルース
TTITLE10=ちゅうちゅうタコかいな
EXTD=
EXTT0=
EXTT1=
EXTT2=
EXTT3=
EXTT4=
EXTT5=
EXTT6=
EXTT7=
EXTT8=
EXTT9=
EXTT10=
PLAYORDER=
